<svg height="auto" viewBox="0 0 200 160" xmlns="http://www.w3.org/2000/svg"><path d="M0 122.662c10-10.833 30-42.325 50-54.166 20-11.84 30-9.813 50-5.036 20 4.776 30 31.944 50 28.92 20-3.023 40-35.23 50-44.037V160H0Z" fill="#fafafa1a"/><path d="M0 122.662c10-10.833 30-42.325 50-54.166 20-11.84 30-9.813 50-5.036 20 4.776 30 31.944 50 28.92 20-3.023 40-35.23 50-44.037" fill="none" stroke="#fafafa" stroke-width="2"/><g fill="#fafafa"><circle cy="122.662" r="6"/><circle cx="50" cy="68.496" r="6"/><circle cx="100" cy="63.46" r="6"/><circle cx="150" cy="92.381" r="6"/><circle cx="200" cy="48.343" r="6"/></g></svg>